<svg width="165" height="36" viewBox="0 0 165 36" fill="none" xmlns="http://www.w3.org/2000/svg">
<mask id="mask0_1_989" style="mask-type:alpha" maskUnits="userSpaceOnUse" x="6" y="0" width="31" height="36">
<path d="M6.54285 -9.15527e-05H36.0856V35.45H6.54285V-9.15527e-05Z" fill="white"/>
</mask>
<g mask="url(#mask0_1_989)">
<path d="M18.0422 6.50126C24.3401 6.50126 29.465 11.5362 29.465 17.7233C29.465 23.9104 24.3419 28.9453 18.0422 28.9453C15.4971 28.9453 13.1441 28.1224 11.2431 26.7347L6.63719 31.4464C9.74768 33.9467 13.7191 35.4497 18.0422 35.4497C27.9909 35.4497 36.0858 27.4974 36.0858 17.7233C36.0858 7.95159 27.9909 -0.000442505 18.0422 -0.000442505C13.6756 -0.000442505 9.66713 1.53225 6.54309 4.07736L11.3651 8.62827C13.2447 7.29263 15.5508 6.50231 18.0422 6.50126Z" fill="white"/>
</g>
<path d="M0.85916 12.3224C0.302906 14.0264 -0.000244141 15.8403 -0.000244141 17.7233C-0.000244141 19.6481 0.317764 21.5006 0.897738 23.2374L6.42821 17.5557L0.85916 12.3224Z" fill="white"/>
<path d="M4.03331 4.57292C4.21291 4.57292 4.39251 4.63835 4.53222 4.77024L17.3003 16.8199C17.5872 17.0905 17.5964 17.538 17.3208 17.8201L4.95528 30.4703C4.81374 30.6149 4.62502 30.6879 4.43551 30.6879C4.25618 30.6879 4.07658 30.6222 3.93687 30.4903L0.580317 27.2868C0.293588 27.0162 0.284465 26.5681 0.559985 26.2864L9.11571 17.4966L0.221384 9.13921C-0.065605 8.86838 -0.0747282 8.4203 0.200792 8.13852L3.51381 4.79031C3.65535 4.64565 3.84407 4.57292 4.03331 4.57292Z" fill="#1AFFD3"/>
<mask id="mask1_1_989" style="mask-type:alpha" maskUnits="userSpaceOnUse" x="47" y="5" width="25" height="26">
<path d="M48.3163 7.20303V9.21352C48.2582 10.9373 48.6088 11.2819 50.3047 11.2243H60.4802L48.0239 27.5404C47.3808 28.3448 47.2638 28.5747 47.2638 28.9764C47.2638 29.7808 47.7901 30.0681 49.3105 30.0681H69.9537C71.6498 30.1257 72.0004 29.7808 71.942 28.0573V26.0466C72.0004 24.3231 71.6498 23.9785 69.9537 24.0358H58.6086L71.0062 7.71992C71.5912 6.91578 71.7082 6.68561 71.7082 6.28341C71.7082 5.47926 71.1817 5.19227 69.6612 5.19227H50.3047C50.1926 5.18836 50.0862 5.18628 49.9856 5.18628C48.5642 5.18628 48.2619 5.59343 48.3163 7.20303Z" fill="white"/>
</mask>
<g mask="url(#mask1_1_989)">
<path d="M47.0024 30.3864H72.2601V4.87402H47.0024V30.3864Z" fill="white"/>
</g>
<mask id="mask2_1_989" style="mask-type:alpha" maskUnits="userSpaceOnUse" x="75" y="4" width="30" height="27">
<path d="M75.1577 17.4291C75.1577 25.415 81.0054 30.8725 89.485 30.8725C98.1401 30.8725 104.105 25.4721 104.105 17.6014C104.105 9.7883 98.1987 4.38789 89.7191 4.38789C81.2398 4.38789 75.1577 9.84564 75.1577 17.4291ZM82.4677 17.7161C82.4677 13.7522 85.6254 10.6498 89.6605 10.6498C93.5787 10.6498 96.7948 13.8098 96.7948 17.659C96.7948 21.5082 93.5787 24.6104 89.6605 24.6104C85.7422 24.6104 82.4677 21.4506 82.4677 17.7161Z" fill="white"/>
</mask>
<g mask="url(#mask2_1_989)">
<path d="M74.8975 31.1327H104.366V4.12677H74.8975V31.1327Z" fill="white"/>
</g>
<mask id="mask3_1_989" style="mask-type:alpha" maskUnits="userSpaceOnUse" x="108" y="4" width="30" height="27">
<path d="M108.196 17.4285C108.196 25.4145 114.044 30.8719 122.523 30.8719C131.178 30.8719 137.143 25.4715 137.143 17.6008C137.143 9.78774 131.237 4.38733 122.757 4.38733C114.278 4.38733 108.196 9.84508 108.196 17.4285ZM115.506 17.7155C115.506 13.7516 118.664 10.6492 122.699 10.6492C126.617 10.6492 129.833 13.8092 129.833 17.6584C129.833 21.5076 126.617 24.6098 122.699 24.6098C118.781 24.6098 115.506 21.45 115.506 17.7155Z" fill="white"/>
</mask>
<g mask="url(#mask3_1_989)">
<path d="M107.936 31.1327H137.404V4.12674H107.936V31.1327Z" fill="white"/>
</g>
<mask id="mask4_1_989" style="mask-type:alpha" maskUnits="userSpaceOnUse" x="139" y="5" width="26" height="26">
<path d="M140.773 7.20303V9.21352C140.715 10.9373 141.065 11.2819 142.762 11.2243H152.937L140.481 27.5404C139.837 28.3448 139.72 28.5747 139.72 28.9764C139.72 29.7808 140.247 30.0681 141.767 30.0681H162.41C162.517 30.0717 162.618 30.0738 162.714 30.0738H162.748C164.039 30.071 164.397 29.7243 164.404 28.4264V28.3396C164.404 28.25 164.402 28.1559 164.399 28.0573V26.0466C164.402 25.9478 164.404 25.8537 164.404 25.7638V25.6788C164.397 24.273 163.978 23.9827 162.41 24.0358H151.065L163.463 7.71992C164.048 6.91578 164.165 6.68561 164.165 6.28341C164.165 5.47926 163.638 5.19227 162.118 5.19227H142.762C142.65 5.18836 142.543 5.18628 142.442 5.18628C141.021 5.18628 140.719 5.59343 140.773 7.20303Z" fill="white"/>
</mask>
<g mask="url(#mask4_1_989)">
<path d="M139.46 30.3348H164.665V4.92566H139.46V30.3348Z" fill="white"/>
</g>
</svg>
